<?xml version="1.0" encoding="UTF-8" standalone="no"?>
<!-- Created with Inkscape (http://www.inkscape.org/) -->

<svg
   xmlns:dc="http://purl.org/dc/elements/1.1/"
   xmlns:cc="http://creativecommons.org/ns#"
   xmlns:rdf="http://www.w3.org/1999/02/22-rdf-syntax-ns#"
   xmlns:svg="http://www.w3.org/2000/svg"
   xmlns="http://www.w3.org/2000/svg"
   xmlns:sodipodi="http://sodipodi.sourceforge.net/DTD/sodipodi-0.dtd"
   xmlns:inkscape="http://www.inkscape.org/namespaces/inkscape"
   id="svg4136"
   version="1.1"
   inkscape:version="0.91 r13725"
   xml:space="preserve"
   width="393.87811"
   height="75"
   viewBox="0 0 393.87813 75"
   sodipodi:docname="code_labs_straight_big_logo.svg"><metadata
     id="metadata4142"><rdf:RDF><cc:Work
         rdf:about=""><dc:format>image/svg+xml</dc:format><dc:type
           rdf:resource="http://purl.org/dc/dcmitype/StillImage" /><dc:title></dc:title></cc:Work></rdf:RDF></metadata><defs
     id="defs4140"><clipPath
       clipPathUnits="userSpaceOnUse"
       id="clipPath4166"><path
         d="m 0,395.991 600,0 L 600,0 0,0 0,395.991 Z"
         id="path4168"
         inkscape:connector-curvature="0" /></clipPath><clipPath
       clipPathUnits="userSpaceOnUse"
       id="clipPath4174"><path
         d="m 236.42,248.091 22.129,0 0,-20.197 -22.129,0 0,20.197 z"
         id="path4176"
         inkscape:connector-curvature="0" /></clipPath><clipPath
       clipPathUnits="userSpaceOnUse"
       id="clipPath4190"><path
         d="m 307.83,236.894 22.465,0 0,-20.197 -22.465,0 0,20.197 z"
         id="path4192"
         inkscape:connector-curvature="0" /></clipPath><clipPath
       clipPathUnits="userSpaceOnUse"
       id="clipPath4214"><path
         d="m 0,395.991 600,0 L 600,0 0,0 0,395.991 Z"
         id="path4216"
         inkscape:connector-curvature="0" /></clipPath></defs><sodipodi:namedview
     pagecolor="#ffffff"
     bordercolor="#666666"
     borderopacity="1"
     objecttolerance="10"
     gridtolerance="10"
     guidetolerance="10"
     inkscape:pageopacity="0"
     inkscape:pageshadow="2"
     inkscape:window-width="1280"
     inkscape:window-height="756"
     id="namedview4138"
     showgrid="false"
     fit-margin-top="0"
     fit-margin-left="0"
     fit-margin-right="0"
     fit-margin-bottom="0"
     inkscape:showpageshadow="false"
     showborder="false"
     inkscape:zoom="0.88621577"
     inkscape:cx="327.04254"
     inkscape:cy="135.12915"
     inkscape:window-x="0"
     inkscape:window-y="0"
     inkscape:window-maximized="0"
     inkscape:current-layer="g4144" /><g
     id="g4144"
     inkscape:groupmode="layer"
     inkscape:label="CodeLabs_Logo"
     transform="matrix(1.25,0,0,-1.25,-673.48167,230.53177)"
     style="display:inline"><g
       id="g4227"
       transform="translate(433.72509,0)"><g
         transform="matrix(0.510685,0,0,0.510685,169.39587,124.51517)"
         id="g4146"><path
           inkscape:connector-curvature="0"
           id="path4148"
           style="fill:#2b5dc1;fill-opacity:1;fill-rule:nonzero;stroke:none"
           d="m -21.216804,-0.03312514 -58.345532,-0.1425 88.7958858,77.06124614 58.1813332,0 -88.631687,-76.91874614 z" /></g><g
         transform="matrix(0.510685,0,0,0.510685,132.25176,141.03016)"
         id="g4150"><path
           inkscape:connector-curvature="0"
           id="path4152"
           style="fill:#2b5dc1;fill-opacity:1;fill-rule:nonzero;stroke:none"
           d="m -53.244878,8.0515977 0.0015,50.4937463 30.451793,26.4275 L 6.2990238,59.726594 -53.244876,8.0515977 Z" /></g><g
         transform="matrix(0.510685,0,0,0.510685,159.08151,134.82942)"
         id="g4154"><path
           inkscape:connector-curvature="0"
           id="path4156"
           style="fill:#2051a0;fill-opacity:1;fill-rule:nonzero;stroke:none"
           d="M -30.110517,5.0160967 -59.365383,-20.372652 -105.78197,20.193596 -76.689865,45.439845 -30.110517,5.0160967 Z" /></g><g
         transform="matrix(0.510685,0,0,0.510685,190.50672,145.62602)"
         id="g4158"><path
           inkscape:connector-curvature="0"
           id="path4160"
           style="fill:#3a6de1;fill-opacity:1;fill-rule:nonzero;stroke:none"
           d="M -3.013651,10.301448 -32.104318,-14.944801 -136.86931,75.975195 -78.657738,75.948945 -3.013651,10.301448 Z" /></g><g
         transform="matrix(0.510685,0,0,0.510685,11.515756,24.647908)"
         id="g4162"><g
           clip-path="url(#clipPath4166)"
           id="g4164"><g
             id="g4170"><g
               id="g4172" /><g
               id="g4178"><g
                 style="opacity:0.39999402"
                 id="g4180"
                 clip-path="url(#clipPath4174)"><g
                   id="g4182"
                   transform="translate(236.4197,227.8944)"><path
                     inkscape:connector-curvature="0"
                     id="path4184"
                     style="fill:#231f20;fill-opacity:1;fill-rule:nonzero;stroke:none"
                     d="m -11.874246,24.381696 22.129,18.266 -1.9319995,1.931 -20.1970005,-20.197 z" /></g></g></g></g><g
             id="g4186"><g
               id="g4188" /><g
               id="g4194"><g
                 style="opacity:0.39999402"
                 id="g4196"
                 clip-path="url(#clipPath4190)"><g
                   id="g4198"
                   transform="translate(330.2949,216.6968)"><path
                     inkscape:connector-curvature="0"
                     id="path4200"
                     style="fill:#231f20;fill-opacity:1;fill-rule:nonzero;stroke:none"
                     d="m -20.623689,4.374722 -20.197,20.197 -2.267,-2.267 22.464,-17.93 z" /></g></g></g></g></g></g><g
         style="fill:#2945b5;fill-opacity:1"
         transform="translate(244.632,97.7318)"
         id="g4202"><path
           inkscape:connector-curvature="0"
           id="path4204"
           style="opacity:1;fill:#2945b5;fill-opacity:1;fill-rule:nonzero;stroke:#2051a0;stroke-width:2.4000001;stroke-miterlimit:4;stroke-dasharray:none;stroke-opacity:1"
           d="m 83.516816,41.006068 13.078675,0 0,-1.891635 -15.334842,0 0,26.486486 2.256167,0 0,-24.594851 z" /></g><g
         style="fill:#2945b5;fill-opacity:1"
         transform="translate(272.9783,101.83385)"
         id="g4206"><path
           inkscape:connector-curvature="0"
           id="path4208"
           style="opacity:1;fill:#2945b5;fill-opacity:1;fill-rule:nonzero;stroke:#2051a0;stroke-width:2.4000001;stroke-miterlimit:4;stroke-dasharray:none;stroke-opacity:1"
           d="m 79.620645,44.344938 10.624327,0 -5.312164,14.425298 -5.312163,-14.425298 z m 11.332142,-1.89164 -12.024035,0 -2.728631,-7.440915 -2.346405,0 10.024449,26.486486 2.126981,0 10.024449,-26.486486 -2.328699,0 -2.748109,7.440915 z" /></g><g
         id="g4210"><g
           clip-path="url(#clipPath4214)"
           id="g4212"><g
             transform="translate(301.9323,103.8483)"
             id="g4218"><path
               inkscape:connector-curvature="0"
               id="path4220"
               style="opacity:1;fill:#2945b5;fill-opacity:1;fill-rule:nonzero;stroke:#2051a0;stroke-width:2.4000001;stroke-miterlimit:4;stroke-dasharray:none;stroke-opacity:1"
               d="m 76.545658,45.713854 0,-10.824286 6.711867,0 c 1.9182,0 3.436457,0.486627 4.556587,1.459872 1.121876,0.978554 1.682819,2.328721 1.682819,4.061097 0,1.633287 -0.536169,2.928593 -1.608516,3.875296 -1.074103,0.955553 -2.556981,1.428021 -4.448613,1.428021 l -6.894144,0 z m 0,1.891635 6.111998,0 c 1.866866,0.03712 3.312581,0.477777 4.338918,1.31831 1.024562,0.845842 1.537721,2.079211 1.537721,3.693033 0,1.700528 -0.530864,2.956901 -1.592583,3.76558 -1.06171,0.805144 -2.664929,1.210367 -4.811385,1.210367 l -5.584669,0 0,-9.98729 z m -2.236693,-14.607556 0,26.486486 7.821362,0 c 2.838349,0 4.991892,-0.587486 6.457058,-1.755386 1.466952,-1.173205 2.201307,-2.896739 2.201307,-5.179445 0,-1.369626 -0.373376,-2.565835 -1.118342,-3.574472 -0.744989,-1.013945 -1.766003,-1.742998 -3.064851,-2.178304 1.539503,-0.337985 2.779956,-1.097119 3.719583,-2.270325 0.939622,-1.176744 1.41032,-2.532212 1.41032,-4.073477 0,-2.337571 -0.755594,-4.167275 -2.265014,-5.480266 -1.509409,-1.314775 -3.611633,-1.974811 -6.3031,-1.974811 l -8.858323,0 z" /></g><g
             transform="translate(338.3227,100.3429)"
             id="g4222"><path
               inkscape:connector-curvature="0"
               id="path4224"
               style="opacity:1;fill:#2945b5;fill-opacity:1;fill-rule:nonzero;stroke:#2051a0;stroke-width:2.4000001;stroke-miterlimit:4;stroke-dasharray:none;stroke-opacity:1"
               d="m 78.444178,43.195995 c 0,1.42947 -0.504627,2.557544 -1.505237,3.391108 -1.004088,0.83185 -2.841724,1.624085 -5.506045,2.371539 -2.669492,0.747462 -4.615639,1.567251 -5.841886,2.452485 -1.748072,1.252079 -2.621256,2.889939 -2.621256,4.922196 0,1.968531 0.811187,3.571944 2.435256,4.806799 1.618919,1.234853 3.69596,1.849697 6.222495,1.849697 1.708472,0 3.239562,-0.332395 4.594977,-0.992017 1.350233,-0.659622 2.399079,-1.579303 3.143092,-2.760765 0.742293,-1.183189 1.114297,-2.497264 1.114297,-3.94912 l -2.195871,0 c 0,1.761861 -0.601052,3.182717 -1.804914,4.253957 -1.203852,1.071241 -2.824488,1.60686 -4.851581,1.60686 -1.973699,0 -3.540953,-0.442619 -4.708637,-1.319243 -1.169402,-0.885239 -1.75325,-2.032257 -1.75325,-3.453113 0,-1.30891 0.521851,-2.380152 1.575859,-3.208555 1.048856,-0.826679 2.731496,-1.556913 5.046197,-2.190704 2.309543,-0.632064 4.062805,-1.28824 5.258041,-1.965083 1.19007,-0.676844 2.089089,-1.491472 2.690141,-2.43526 0.602791,-0.942077 0.904184,-2.058092 0.904184,-3.34461 0,-2.032262 -0.814619,-3.661509 -2.435242,-4.887745 -1.624087,-1.22625 -3.761414,-1.841088 -6.417124,-1.841088 -1.820415,0 -3.487556,0.323782 -5.001415,0.974794 -1.519021,0.64929 -2.669488,1.556907 -3.453109,2.726317 -0.787063,1.167688 -1.178017,2.509323 -1.178017,4.01801 l 2.178642,0 c 0,-1.818691 0.676843,-3.253329 2.035701,-4.302181 1.35368,-1.048847 3.160324,-1.575852 5.418198,-1.575852 2.004707,0 3.615002,0.442613 4.832635,1.327853 1.21247,0.885236 1.823869,2.058089 1.823869,3.523721" /></g><g
             transform="translate(244.1822,140.9144)"
             id="g4226"><path
               inkscape:connector-curvature="0"
               id="path4228"
               style="fill:#161616;fill-opacity:1;fill-rule:nonzero;stroke:none"
               d="m -10.940197,4.5232495 c -0.211722,-2.9311027 -1.294521,-5.24001051 -3.247214,-6.9243619 -1.952692,-1.684942 -4.526402,-2.5265292 -7.719948,-2.5265292 -3.494912,0 -6.242012,1.1759807 -8.245423,3.5273498 -2.002823,2.35195959 -3.003644,5.5808913 -3.003644,9.6862057 l 0,1.6666594 c 0,2.6203007 0.461191,4.9268497 1.384756,6.9243627 0.922972,1.996336 2.242852,3.528531 3.959052,4.594815 1.715021,1.066875 3.708406,1.600608 5.980159,1.600608 3.144007,0 5.677022,-0.842177 7.598457,-2.527118 1.921436,-1.684353 3.031952,-4.048699 3.33155,-7.093035 l -5.615097,0 c -0.138005,1.758661 -0.626913,3.0349 -1.46909,3.826947 -0.842177,0.793816 -2.124313,1.188955 -3.84582,1.188955 -1.872486,0 -3.273165,-0.671735 -4.202625,-2.012258 -0.92946,-1.340523 -1.406575,-3.422374 -1.431935,-6.241424 l 0,-2.0600288 c 0,-2.9446669 0.446447,-5.0966991 1.338754,-6.4566835 0.891716,-1.36057471 2.298881,-2.04056711 4.220906,-2.04056711 1.733892,0 3.028413,0.3969079 3.882976,1.1889542 0.85456,0.79204761 1.344651,2.01874621 1.469678,3.67714871 l 5.614508,0 z" /></g><g
             transform="translate(281.2856,149.6737)"
             id="g4230"><path
               inkscape:connector-curvature="0"
               id="path4232"
               style="fill:#161616;fill-opacity:1;fill-rule:nonzero;stroke:none"
               d="m -26.45113,0.92965069 c 0,2.85738361 -0.511911,5.02946741 -1.534554,6.51448091 -1.023822,1.483834 -2.483475,2.2263408 -4.379551,2.2263408 -1.88487,0 -3.338038,-0.7324807 -4.361859,-2.1980314 -1.023232,-1.4673224 -1.541042,-3.6164042 -1.553426,-6.4490183 l 0,-1.32872711 c 0,-2.78307379 0.511911,-4.94041339 1.534554,-6.47496779 1.023821,-1.535142 2.495861,-2.302418 4.417296,-2.302418 1.88428,0 3.33155,0.739557 4.342986,2.218082 1.010259,1.4773469 1.52158,3.6329181 1.534554,6.46553179 l 0,1.3287271 z m 5.689408,-1.2349551 c 0,-2.68281549 -0.474166,-5.03418539 -1.421909,-7.05646879 -0.948333,-2.020515 -2.30537,-3.5798388 -4.071698,-4.6785598 -1.76515,-1.098132 -3.789792,-1.646607 -6.073341,-1.646607 -2.258188,0 -4.273985,0.541989 -6.045033,1.628915 -1.771637,1.085156 -3.144596,2.6344518 -4.117697,4.6502488 -0.973103,2.0157969 -1.466143,4.3323725 -1.478527,6.95267179 l 0,1.3487798 c 0,2.68222491 0.483011,5.04362091 1.450807,7.08418871 0.966616,2.0393869 2.332498,3.6051979 4.098826,4.6974319 1.765151,1.091644 3.783307,1.637763 6.055059,1.637763 2.270573,0 4.288729,-0.546119 6.053879,-1.637763 1.765738,-1.092234 3.132211,-2.658045 4.098825,-4.6974319 0.967796,-2.0405678 1.450809,-4.3966557 1.450809,-7.06649621 l 0,-1.2166723 z" /></g><g
             transform="translate(310.1282,164.0203)"
             id="g4234"><path
               inkscape:connector-curvature="0"
               id="path4236"
               style="fill:#161616;fill-opacity:1;fill-rule:nonzero;stroke:none"
               d="m -38.444353,-4.7060673 0,-18.6931257 2.788609,0 c 2.255973,0 3.979917,0.738056 5.173043,2.21174 1.191309,1.475502 1.800293,3.583622 1.825744,6.327993 l 0,1.480351 c 0,2.845568 -0.588989,5.0033738 -1.768178,6.4697868 -1.181007,1.4688377 -2.904952,2.2032549 -5.173044,2.2032549 l -2.846174,0 z m -5.769909,-23.3274727 0,27.99999709 8.616083,0 c 2.460787,0 4.662224,-0.5544497 6.60431,-1.66334889 1.942695,-1.1088977 3.458189,-2.6862007 4.548304,-4.7300884 1.091326,-2.045707 1.63608,-4.3683358 1.63608,-6.9727308 l 0,-1.287052 c 0,-2.602578 -0.536271,-4.917327 -1.605782,-6.942432 -1.071329,-2.025105 -2.581978,-3.596952 -4.529519,-4.711911 -1.949358,-1.115564 -4.148978,-1.680315 -6.595827,-1.692434 l -8.673649,0 z" /></g><g
             transform="translate(373.2679,145.6138)"
             id="g4238"><path
               inkscape:connector-curvature="0"
               id="path4240"
               style="fill:#161616;fill-opacity:1;fill-rule:nonzero;stroke:none"
               d="m -64.338704,2.5468705 -11.077722,0 0,-7.5394633 13.001671,0 0,-4.6344484 -18.769886,0 0,28.0000002 18.731106,0 0,-4.67202 -12.962891,0 0,-6.6735353 11.077722,0 0,-4.4805332 z" /></g><g
             transform="translate(352.4866,287.2954)"
             id="g4242" /><g
             transform="translate(344.6854,278.6552)"
             id="g4246" /><g
             transform="translate(354.6228,267.7753)"
             id="g4250" /></g></g></g><flowRoot
       xml:space="preserve"
       id="flowRoot4211"
       style="font-style:normal;font-variant:normal;font-weight:normal;font-stretch:expanded;font-size:31.25px;line-height:125%;font-family:'Alien League Expanded';-inkscape-font-specification:'Alien League Expanded, Expanded';text-align:start;letter-spacing:0px;word-spacing:0px;writing-mode:lr-tb;text-anchor:start;fill:#000000;fill-opacity:1;stroke:none;stroke-width:1px;stroke-linecap:butt;stroke-linejoin:miter;stroke-opacity:1"><flowRegion
         id="flowRegion4213"><rect
           id="rect4215"
           width="271.90872"
           height="119.67813"
           x="-288.18494"
           y="-70.815529" /></flowRegion><flowPara
         id="flowPara4217" /></flowRoot></g></svg>