<svg xmlns="http://www.w3.org/2000/svg" viewBox="0 0 169.93 192.98"><defs><style>.cls-1{isolation:isolate;}.cls-2{fill:#2b5dc1;}.cls-3{fill:#2051a0;}.cls-4{fill:#3a6de1;}.cls-5{fill:#231f20;opacity:0.4;mix-blend-mode:soft-light;}.cls-6{fill:#fff;}</style></defs><title>codelabs_white_code</title><g class="cls-1"><g id="Layer_2" data-name="Layer 2"><g id="Layer_1-2" data-name="Layer 1"><polygon class="cls-2" points="102.64 93.88 62.13 93.99 123.78 32.34 164.18 32.34 102.64 93.88"/><polygon class="cls-2" points="29.91 61.54 29.91 21.14 51.05 0 71.25 20.2 29.91 61.54"/><polygon class="cls-3" points="82.44 73.68 62.13 93.99 29.91 61.54 50.1 41.34 82.44 73.68"/><polygon class="cls-4" points="143.98 52.54 123.78 72.74 51.05 0 91.46 0.02 143.98 52.54"/><polygon class="cls-5" points="29.91 61.54 52.04 43.27 50.1 41.34 29.91 61.54"/><polygon class="cls-5" points="123.78 72.74 103.59 52.54 101.32 54.81 123.78 72.74"/><path class="cls-4" d="M38.12,191.7h7.39v1.07H36.85v-15h1.27Z"/><path class="cls-4" d="M72.87,188.57h-6.8l-1.54,4.2H63.21l5.66-15h1.2l5.66,15H74.42Zm-6.4-1.07h6l-3-8.15Z"/><path class="cls-4" d="M94.16,192.77v-15h4.42a5.76,5.76,0,0,1,3.65,1,3.52,3.52,0,0,1,1.24,2.93,3.31,3.31,0,0,1-.63,2,3.45,3.45,0,0,1-1.73,1.23,3.62,3.62,0,0,1,2.9,3.59,3.89,3.89,0,0,1-1.28,3.1,5.25,5.25,0,0,1-3.56,1.12Zm1.26-8.25h3.45a3.89,3.89,0,0,0,2.45-.75,2.55,2.55,0,0,0,.87-2.09,2.5,2.5,0,0,0-.9-2.13,4.48,4.48,0,0,0-2.72-.68H95.42Zm0,1.07v6.12h3.79a3.79,3.79,0,0,0,2.58-.82,2.88,2.88,0,0,0,1-2.3,2.77,2.77,0,0,0-.91-2.19,3.65,3.65,0,0,0-2.51-.81Z"/><path class="cls-4" d="M131.81,189.09a2.43,2.43,0,0,0-.87-2,9.23,9.23,0,0,0-3.2-1.38,11.16,11.16,0,0,1-3.39-1.42,3.45,3.45,0,0,1-.11-5.65,5.79,5.79,0,0,1,3.61-1.07,6,6,0,0,1,2.67.58,4.36,4.36,0,0,1,1.82,1.6,4.21,4.21,0,0,1,.65,2.29h-1.27a3.15,3.15,0,0,0-1-2.47,4.09,4.09,0,0,0-2.82-.93,4.45,4.45,0,0,0-2.73.77,2.4,2.4,0,0,0-1,2,2.26,2.26,0,0,0,.91,1.86,8.47,8.47,0,0,0,2.93,1.27,13.9,13.9,0,0,1,3.05,1.14,4.36,4.36,0,0,1,1.56,1.41,3.53,3.53,0,0,1,.52,1.94,3.39,3.39,0,0,1-1.41,2.84,6,6,0,0,1-3.73,1.07,7.28,7.28,0,0,1-2.9-.57,4.43,4.43,0,0,1-2-1.58,4.08,4.08,0,0,1-.68-2.33h1.26a3,3,0,0,0,1.18,2.5,5,5,0,0,0,3.15.91,4.67,4.67,0,0,0,2.81-.77A2.41,2.41,0,0,0,131.81,189.09Z"/><path class="cls-6" d="M37.67,148.52q-.54,7.46-5.51,11.74t-13.09,4.28q-8.89,0-14-6T0,142.14v-2.83a27.69,27.69,0,0,1,2.35-11.74,17.59,17.59,0,0,1,6.71-7.79,18.8,18.8,0,0,1,10.14-2.71q8,0,12.88,4.28t5.65,12H28.21q-.35-4.47-2.49-6.49t-6.52-2a8.09,8.09,0,0,0-7.13,3.41q-2.36,3.41-2.43,10.58v3.49q0,7.49,2.27,10.95t7.16,3.46q4.41,0,6.58-2t2.49-6.24Z"/><path class="cls-6" d="M84.42,141.85a27.92,27.92,0,0,1-2.41,12,18.17,18.17,0,0,1-6.9,7.93,19.09,19.09,0,0,1-10.3,2.79,19.2,19.2,0,0,1-10.25-2.76,18.33,18.33,0,0,1-7-7.89,27.09,27.09,0,0,1-2.51-11.79v-2.29a27.74,27.74,0,0,1,2.46-12,18.31,18.31,0,0,1,6.95-8,19.12,19.12,0,0,1,10.27-2.78A19.11,19.11,0,0,1,75,119.84a18.31,18.31,0,0,1,6.95,8,27.67,27.67,0,0,1,2.46,12Zm-9.65-2.09q0-7.27-2.6-11a8.48,8.48,0,0,0-7.43-3.78,8.49,8.49,0,0,0-7.4,3.73q-2.6,3.73-2.63,10.93v2.25q0,7.08,2.6,11a8.46,8.46,0,0,0,7.49,3.9A8.38,8.38,0,0,0,72.17,153q2.57-3.76,2.6-11Z"/><path class="cls-6" d="M94.09,163.91V117.7h14.22a21.59,21.59,0,0,1,10.9,2.74,19.15,19.15,0,0,1,7.51,7.81,24.06,24.06,0,0,1,2.7,11.51v2.12a24.17,24.17,0,0,1-2.65,11.46,19,19,0,0,1-7.47,7.78,21.75,21.75,0,0,1-10.89,2.79Zm9.52-38.5v30.85h4.6q5.59,0,8.54-3.65t3-10.44v-2.44q0-7-2.92-10.68t-8.54-3.64Z"/><path class="cls-6" d="M166.76,143.82H148.48v12.44h21.46v7.65H139V117.7h30.91v7.71H148.48v11h18.28Z"/></g></g></g></svg>