<?xml version="1.0" encoding="UTF-8" standalone="no"?>
<!-- Created with Inkscape (http://www.inkscape.org/) -->

<svg
   xmlns:dc="http://purl.org/dc/elements/1.1/"
   xmlns:cc="http://creativecommons.org/ns#"
   xmlns:rdf="http://www.w3.org/1999/02/22-rdf-syntax-ns#"
   xmlns:svg="http://www.w3.org/2000/svg"
   xmlns="http://www.w3.org/2000/svg"
   xmlns:sodipodi="http://sodipodi.sourceforge.net/DTD/sodipodi-0.dtd"
   xmlns:inkscape="http://www.inkscape.org/namespaces/inkscape"
   id="svg4136"
   version="1.1"
   inkscape:version="0.91 r13725"
   xml:space="preserve"
   width="362.28168"
   height="75"
   viewBox="0 0 362.28169 75"
   sodipodi:docname="code_labs_straight_big_logo.svg"><metadata
     id="metadata4142"><rdf:RDF><cc:Work
         rdf:about=""><dc:format>image/svg+xml</dc:format><dc:type
           rdf:resource="http://purl.org/dc/dcmitype/StillImage" /><dc:title></dc:title></cc:Work></rdf:RDF></metadata><defs
     id="defs4140"><clipPath
       clipPathUnits="userSpaceOnUse"
       id="clipPath4166"><path
         d="m 0,395.991 600,0 L 600,0 0,0 0,395.991 Z"
         id="path4168"
         inkscape:connector-curvature="0" /></clipPath><clipPath
       clipPathUnits="userSpaceOnUse"
       id="clipPath4174"><path
         d="m 236.42,248.091 22.129,0 0,-20.197 -22.129,0 0,20.197 z"
         id="path4176"
         inkscape:connector-curvature="0" /></clipPath><clipPath
       clipPathUnits="userSpaceOnUse"
       id="clipPath4190"><path
         d="m 307.83,236.894 22.465,0 0,-20.197 -22.465,0 0,20.197 z"
         id="path4192"
         inkscape:connector-curvature="0" /></clipPath><clipPath
       clipPathUnits="userSpaceOnUse"
       id="clipPath4214"><path
         d="m 0,395.991 600,0 L 600,0 0,0 0,395.991 Z"
         id="path4216"
         inkscape:connector-curvature="0" /></clipPath></defs><sodipodi:namedview
     pagecolor="#ffffff"
     bordercolor="#666666"
     borderopacity="1"
     objecttolerance="10"
     gridtolerance="10"
     guidetolerance="10"
     inkscape:pageopacity="0"
     inkscape:pageshadow="2"
     inkscape:window-width="1280"
     inkscape:window-height="756"
     id="namedview4138"
     showgrid="false"
     fit-margin-top="0"
     fit-margin-left="0"
     fit-margin-right="0"
     fit-margin-bottom="0"
     inkscape:showpageshadow="false"
     showborder="false"
     inkscape:zoom="0.88621577"
     inkscape:cx="327.04255"
     inkscape:cy="135.12915"
     inkscape:window-x="0"
     inkscape:window-y="0"
     inkscape:window-maximized="0"
     inkscape:current-layer="g4144"
     inkscape:snap-text-baseline="true" /><g
     id="g4144"
     inkscape:groupmode="layer"
     inkscape:label="CodeLabs_Logo"
     transform="matrix(1.25,0,0,-1.25,-673.48167,230.53177)"
     style="display:inline"><g
       id="g4227"
       transform="translate(433.72509,0)"><g
         transform="matrix(0.510685,0,0,0.510685,169.39587,124.51517)"
         id="g4146"><path
           inkscape:connector-curvature="0"
           id="path4148"
           style="fill:#2b5dc1;fill-opacity:1;fill-rule:nonzero;stroke:none"
           d="m -21.216804,-0.03312514 -58.345532,-0.1425 88.7958858,77.06124614 58.1813332,0 -88.631687,-76.91874614 z" /></g><g
         transform="matrix(0.510685,0,0,0.510685,132.25176,141.03016)"
         id="g4150"><path
           inkscape:connector-curvature="0"
           id="path4152"
           style="fill:#2b5dc1;fill-opacity:1;fill-rule:nonzero;stroke:none"
           d="m -53.244878,8.0515977 0.0015,50.4937463 30.451793,26.4275 L 6.2990238,59.726594 -53.244876,8.0515977 Z" /></g><g
         transform="matrix(0.510685,0,0,0.510685,159.08151,134.82942)"
         id="g4154"><path
           inkscape:connector-curvature="0"
           id="path4156"
           style="fill:#2051a0;fill-opacity:1;fill-rule:nonzero;stroke:none"
           d="M -30.110517,5.0160967 -59.365383,-20.372652 -105.78197,20.193596 -76.689865,45.439845 -30.110517,5.0160967 Z" /></g><g
         transform="matrix(0.510685,0,0,0.510685,190.50672,145.62602)"
         id="g4158"><path
           inkscape:connector-curvature="0"
           id="path4160"
           style="fill:#3a6de1;fill-opacity:1;fill-rule:nonzero;stroke:none"
           d="M -3.013651,10.301448 -32.104318,-14.944801 -136.86931,75.975195 -78.657738,75.948945 -3.013651,10.301448 Z" /></g><g
         transform="matrix(0.510685,0,0,0.510685,11.515756,24.647908)"
         id="g4162"><g
           clip-path="url(#clipPath4166)"
           id="g4164"><g
             id="g4170"><g
               id="g4172" /><g
               id="g4178"><g
                 style="opacity:0.39999402"
                 id="g4180"
                 clip-path="url(#clipPath4174)"><g
                   id="g4182"
                   transform="translate(236.4197,227.8944)"><path
                     inkscape:connector-curvature="0"
                     id="path4184"
                     style="fill:#231f20;fill-opacity:1;fill-rule:nonzero;stroke:none"
                     d="m -11.874246,24.381696 22.129,18.266 -1.9319995,1.931 -20.1970005,-20.197 z" /></g></g></g></g><g
             id="g4186"><g
               id="g4188" /><g
               id="g4194"><g
                 style="opacity:0.39999402"
                 id="g4196"
                 clip-path="url(#clipPath4190)"><g
                   id="g4198"
                   transform="translate(330.2949,216.6968)"><path
                     inkscape:connector-curvature="0"
                     id="path4200"
                     style="fill:#231f20;fill-opacity:1;fill-rule:nonzero;stroke:none"
                     d="m -20.623689,4.374722 -20.197,20.197 -2.267,-2.267 22.464,-17.93 z" /></g></g></g></g></g></g><g
         style="fill:#2945b5;fill-opacity:1"
         transform="translate(244.632,97.7318)"
         id="g4202" /><g
         style="fill:#2945b5;fill-opacity:1"
         transform="translate(272.9783,101.83385)"
         id="g4206" /><g
         id="g4210"><g
           clip-path="url(#clipPath4214)"
           id="g4212"><g
             transform="translate(301.9323,103.8483)"
             id="g4218" /><g
             transform="translate(338.3227,100.3429)"
             id="g4222" /><g
             transform="translate(244.1822,140.9144)"
             id="g4226" /><g
             transform="translate(281.2856,149.6737)"
             id="g4230" /><g
             transform="translate(310.1282,164.0203)"
             id="g4234" /><g
             transform="translate(373.2679,145.6138)"
             id="g4238" /><g
             transform="translate(352.4866,287.2954)"
             id="g4242" /><g
             transform="translate(344.6854,278.6552)"
             id="g4246" /><g
             transform="translate(354.6228,267.7753)"
             id="g4250" /></g></g></g><flowRoot
       xml:space="preserve"
       id="flowRoot4211"
       style="font-style:normal;font-variant:normal;font-weight:normal;font-stretch:expanded;font-size:31.25px;line-height:125%;font-family:'Alien League Expanded';-inkscape-font-specification:'Alien League Expanded, Expanded';text-align:start;letter-spacing:0px;word-spacing:0px;writing-mode:lr-tb;text-anchor:start;fill:#000000;fill-opacity:1;stroke:none;stroke-width:1px;stroke-linecap:butt;stroke-linejoin:miter;stroke-opacity:1"><flowRegion
         id="flowRegion4213"><rect
           id="rect4215"
           width="271.90872"
           height="119.67813"
           x="-288.18494"
           y="-70.815529" /></flowRegion><flowPara
         id="flowPara4217" /></flowRoot><g
       transform="matrix(0.89237782,0,0,-0.89237787,518.01781,97.090033)"
       style="font-style:normal;font-weight:normal;font-size:43.75px;line-height:125%;font-family:sans-serif;letter-spacing:0px;word-spacing:2px;fill:#000000;fill-opacity:1;stroke:#000000;stroke-width:2;stroke-linecap:butt;stroke-linejoin:miter;stroke-miterlimit:4;stroke-dasharray:none;stroke-opacity:1"
       id="flowRoot4637"><path
         d="m 156.74719,-61.247083 0,3.674317 q -1.66626,-0.918579 -3.35388,-1.367188 -1.66626,-0.46997 -3.37524,-0.46997 -3.82386,0 -5.93872,2.435302 -2.11487,2.413941 -2.11487,6.793213 0,4.379273 2.11487,6.814575 2.11486,2.413941 5.93872,2.413941 1.70898,0 3.37524,-0.448609 1.68762,-0.46997 3.35388,-1.388549 l 0,3.631591 q -1.6449,0.769043 -3.41797,1.153565 -1.75171,0.384521 -3.7384,0.384521 -5.40466,0 -8.58765,-3.396606 -3.18298,-3.396607 -3.18298,-9.164429 0,-5.853271 3.20435,-9.207153 3.2257,-3.353882 8.82263,-3.353882 1.81579,0 3.54614,0.384522 1.73035,0.363159 3.35388,1.110839 z"
         style="font-style:normal;font-variant:normal;font-weight:normal;font-stretch:normal;font-size:43.75px;font-family:sans-serif;-inkscape-font-specification:sans-serif;letter-spacing:2px;word-spacing:4px;fill:#000000;fill-opacity:1"
         id="path4838"
         inkscape:connector-curvature="0" /><path
         d="m 174.81165,-59.409924 q -3.16163,0 -4.99878,2.478027 -1.83716,2.456665 -1.83716,6.750488 0,4.293823 1.81579,6.771851 1.83716,2.456665 5.02015,2.456665 3.14025,0 4.97741,-2.478027 1.83716,-2.478028 1.83716,-6.750489 0,-4.251098 -1.83716,-6.729126 -1.83716,-2.499389 -4.97741,-2.499389 z m 0,-3.33252 q 5.12695,0 8.05358,3.33252 2.92664,3.332519 2.92664,9.228515 0,5.874634 -2.92664,9.228516 -2.92663,3.332519 -8.05358,3.332519 -5.14832,0 -8.07496,-3.332519 -2.90527,-3.353882 -2.90527,-9.228516 0,-5.895996 2.90527,-9.228515 2.92664,-3.33252 8.07496,-3.33252 z"
         style="font-style:normal;font-variant:normal;font-weight:normal;font-stretch:normal;font-size:43.75px;font-family:sans-serif;-inkscape-font-specification:sans-serif;letter-spacing:2px;word-spacing:4px;fill:#000000;fill-opacity:1"
         id="path4840"
         inkscape:connector-curvature="0" /><path
         d="m 210.03003,-58.53407 0,-12.945557 3.93066,0 0,33.239747 -3.93066,0 0,-3.588868 q -1.23901,2.136231 -3.14026,3.182984 -1.87988,1.02539 -4.52881,1.02539 -4.33655,0 -7.07092,-3.460693 -2.71301,-3.460693 -2.71301,-9.100342 0,-5.639648 2.71301,-9.100342 2.73437,-3.460693 7.07092,-3.460693 2.64893,0 4.52881,1.046753 1.90125,1.025391 3.14026,3.161621 z m -13.39417,8.352661 q 0,4.336548 1.77308,6.814575 1.79443,2.456665 4.91333,2.456665 3.11889,0 4.91333,-2.456665 1.79443,-2.478027 1.79443,-6.814575 0,-4.336548 -1.79443,-6.793213 -1.79444,-2.478027 -4.91333,-2.478027 -3.1189,0 -4.91333,2.478027 -1.77308,2.456665 -1.77308,6.793213 z"
         style="font-style:normal;font-variant:normal;font-weight:normal;font-stretch:normal;font-size:43.75px;font-family:sans-serif;-inkscape-font-specification:sans-serif;letter-spacing:2px;word-spacing:4px;fill:#000000;fill-opacity:1"
         id="path4842"
         inkscape:connector-curvature="0" /><path
         d="m 244.52209,-51.185437 0,1.922607 -18.07251,0 q 0.25635,4.058838 2.43531,6.195069 2.20032,2.114868 6.10962,2.114868 2.2644,0 4.37927,-0.55542 2.13623,-0.55542 4.22974,-1.66626 l 0,3.717041 q -2.11487,0.897217 -4.33655,1.367188 -2.22168,0.46997 -4.50745,0.46997 -5.7251,0 -9.07898,-3.332519 -3.33252,-3.33252 -3.33252,-9.014893 0,-5.874634 3.16162,-9.313965 3.18299,-3.460693 8.56629,-3.460693 4.82788,0 7.62634,3.118897 2.81982,3.097534 2.81982,8.43811 z m -3.93066,-1.153565 q -0.0427,-3.225708 -1.8158,-5.148315 -1.7517,-1.922607 -4.65698,-1.922607 -3.28979,0 -5.27649,1.85852 -1.96533,1.858521 -2.2644,5.233765 l 14.01367,-0.02136 z"
         style="font-style:normal;font-variant:normal;font-weight:normal;font-stretch:normal;font-size:43.75px;font-family:sans-serif;-inkscape-font-specification:sans-serif;letter-spacing:2px;word-spacing:4px;fill:#000000;fill-opacity:1"
         id="path4844"
         inkscape:connector-curvature="0" /></g><flowRoot
       xml:space="preserve"
       id="flowRoot4645"
       style="font-style:normal;font-weight:normal;font-size:43.75px;line-height:125%;font-family:sans-serif;letter-spacing:0px;word-spacing:0px;fill:#000000;fill-opacity:1;stroke:#2051a0;stroke-width:1px;stroke-linecap:butt;stroke-linejoin:miter;stroke-opacity:1"
       transform="matrix(0.80000005,0,0,-0.8000001,538.78533,184.42542)"><flowRegion
         id="flowRegion4647"><rect
           id="rect4649"
           width="185.05652"
           height="51.906094"
           x="279.84155"
           y="-67.177567"
           style="font-size:43.75px;stroke:#2051a0;stroke-opacity:1" /></flowRegion><flowPara
         id="flowPara4651"></flowPara></flowRoot><flowRoot
       xml:space="preserve"
       id="flowRoot4653"
       style="font-style:normal;font-weight:normal;font-size:31.25px;line-height:125%;font-family:sans-serif;letter-spacing:0px;word-spacing:0px;fill:#000000;fill-opacity:1;stroke:#2051a0;stroke-width:0;stroke-linecap:butt;stroke-linejoin:miter;stroke-miterlimit:4;stroke-dasharray:none;stroke-opacity:1"
       transform="matrix(0.80000005,0,0,-0.8000001,538.78533,184.42542)"><flowRegion
         id="flowRegion4655"><rect
           id="rect4657"
           width="216.65152"
           height="58.676456"
           x="293.38226"
           y="-67.177567"
           style="stroke:#2051a0;stroke-width:0;stroke-miterlimit:4;stroke-dasharray:none;stroke-opacity:1" /></flowRegion><flowPara
         id="flowPara4659"></flowPara></flowRoot><g
       transform="scale(1,-1)"
       style="font-style:normal;font-weight:normal;font-size:27.88680649px;line-height:125%;font-family:sans-serif;letter-spacing:1.78475571px;word-spacing:3.56951141px;fill:#2051a0;fill-opacity:1;stroke:#2051a0;stroke-width:1.78475571;stroke-linecap:butt;stroke-linejoin:miter;stroke-miterlimit:4;stroke-dasharray:none;stroke-opacity:1"
       id="text4661"><path
         d="m 747.97926,-160.55643 3.50763,0 0,29.66242 -3.50763,0 0,-29.66242 z"
         style="font-size:39.04153061px;letter-spacing:1.78475571px;word-spacing:3.56951141px;fill:#2051a0;fill-opacity:1;stroke:#2051a0;stroke-width:1.78475571;stroke-miterlimit:4;stroke-dasharray:none;stroke-opacity:1"
         id="path4847"
         inkscape:connector-curvature="0" /><path
         d="m 770.29513,-141.62662 q -4.25111,0 -5.89054,0.97222 -1.63944,0.97223 -1.63944,3.31701 0,1.8682 1.22004,2.97387 1.23912,1.0866 3.35514,1.0866 2.91667,0 4.67049,-2.05883 1.77288,-2.07789 1.77288,-5.50928 l 0,-0.78159 -3.48857,0 z m 6.99621,-1.44881 0,12.18142 -3.50764,0 0,-3.24075 q -1.20098,1.94445 -2.99293,2.87855 -1.79194,0.91503 -4.38454,0.91503 -3.27888,0 -5.22333,-1.83007 -1.92539,-1.84914 -1.92539,-4.93738 0,-3.60295 2.40197,-5.43303 2.42103,-1.83007 7.20591,-1.83007 l 4.91831,0 0,-0.34314 q 0,-2.42103 -1.60131,-3.73639 -1.58225,-1.33443 -4.4608,-1.33443 -1.83007,0 -3.56483,0.43845 -1.73475,0.43846 -3.33607,1.31537 l 0,-3.24075 q 1.92539,-0.74347 3.7364,-1.10567 1.81101,-0.38127 3.5267,-0.38127 4.63237,0 6.91996,2.40197 2.28759,2.40197 2.28759,7.28216 z"
         style="font-size:39.04153061px;letter-spacing:1.78475571px;word-spacing:3.56951141px;fill:#2051a0;fill-opacity:1;stroke:#2051a0;stroke-width:1.78475571;stroke-miterlimit:4;stroke-dasharray:none;stroke-opacity:1"
         id="path4849"
         inkscape:connector-curvature="0" /><path
         d="m 801.72324,-141.55037 q 0,-3.86984 -1.60132,-6.06211 -1.58225,-2.21134 -4.36548,-2.21134 -2.78323,0 -4.38455,2.21134 -1.58225,2.19227 -1.58225,6.06211 0,3.86984 1.58225,6.08118 1.60132,2.19227 4.38455,2.19227 2.78323,0 4.36548,-2.19227 1.60132,-2.21134 1.60132,-6.08118 z m -11.9336,-7.45373 q 1.10567,-1.90632 2.78324,-2.82136 1.69663,-0.9341 4.04141,-0.9341 3.8889,0 6.30993,3.08825 2.4401,3.08824 2.4401,8.12094 0,5.0327 -2.4401,8.12095 -2.42103,3.08824 -6.30993,3.08824 -2.34478,0 -4.04141,-0.91503 -1.67757,-0.9341 -2.78324,-2.84043 l 0,3.20263 -3.5267,0 0,-29.66242 3.5267,0 0,11.55233 z"
         style="font-size:39.04153061px;letter-spacing:1.78475571px;word-spacing:3.56951141px;fill:#2051a0;fill-opacity:1;stroke:#2051a0;stroke-width:1.78475571;stroke-miterlimit:4;stroke-dasharray:none;stroke-opacity:1"
         id="path4851"
         inkscape:connector-curvature="0" /><path
         d="m 826.57451,-151.61576 0,3.317 q -1.48693,-0.76253 -3.08824,-1.14379 -1.60131,-0.38127 -3.31701,-0.38127 -2.61166,0 -3.92703,0.80066 -1.2963,0.80066 -1.2963,2.40197 0,1.22005 0.9341,1.92539 0.9341,0.68627 3.75546,1.31536 l 1.20099,0.26689 q 3.73639,0.80065 5.29958,2.26852 1.58225,1.44881 1.58225,4.06047 0,2.97387 -2.36384,4.70863 -2.34478,1.73475 -6.46244,1.73475 -1.7157,0 -3.58389,-0.34314 -1.84914,-0.32407 -3.90797,-0.99129 l 0,-3.62201 q 1.94445,1.01035 3.83171,1.52506 1.88726,0.49564 3.7364,0.49564 2.47822,0 3.81265,-0.83878 1.33443,-0.85785 1.33443,-2.40197 0,-1.42974 -0.97223,-2.19227 -0.95316,-0.76253 -4.21298,-1.46787 l -1.22005,-0.28595 q -3.25981,-0.68628 -4.70862,-2.09696 -1.4488,-1.42974 -1.4488,-3.90797 0,-3.01199 2.13508,-4.65143 2.13508,-1.63944 6.06211,-1.63944 1.94445,0 3.66015,0.28595 1.71569,0.28595 3.16449,0.85785 z"
         style="font-size:39.04153061px;letter-spacing:1.78475571px;word-spacing:3.56951141px;fill:#2051a0;fill-opacity:1;stroke:#2051a0;stroke-width:1.78475571;stroke-miterlimit:4;stroke-dasharray:none;stroke-opacity:1"
         id="path4853"
         inkscape:connector-curvature="0" /></g></g></svg>